<?xml version="1.0" standalone="no"?><!DOCTYPE svg PUBLIC "-//W3C//DTD SVG 1.1//EN" "http://www.w3.org/Graphics/SVG/1.1/DTD/svg11.dtd"><svg t="1651538674859" class="icon" viewBox="0 0 1024 1024" version="1.1" xmlns="http://www.w3.org/2000/svg" p-id="1100" xmlns:xlink="http://www.w3.org/1999/xlink" width="200" height="200"><defs><style type="text/css">@font-face { font-family: feedback-iconfont; src: url("//at.alicdn.com/t/font_1031158_u69w8yhxdu.woff2?t=1630033759944") format("woff2"), url("//at.alicdn.com/t/font_1031158_u69w8yhxdu.woff?t=1630033759944") format("woff"), url("//at.alicdn.com/t/font_1031158_u69w8yhxdu.ttf?t=1630033759944") format("truetype"); }
</style></defs><path d="M512 512m-512 0a512 512 0 1 0 1024 0 512 512 0 1 0-1024 0Z" fill="#A192F7" p-id="1101"></path><path d="M505.6 705.28c-58.88-98.56-131.84-189.44-181.76-294.4-7.68-16.64-8.96-40.96 0-58.88l-89.6 34.56c-17.92 7.68-30.72 23.04-33.28 42.24l-23.04 131.84c-3.84 23.04 7.68 46.08 29.44 56.32l256 134.4c14.08 6.4 29.44 7.68 43.52 3.84 11.52-5.12 21.76-14.08 26.88-24.32-10.24-5.12-20.48-12.8-28.16-25.6z" fill="#FFFFFF" opacity=".5" p-id="1102"></path><path d="M838.4 421.12l-79.36-133.12c-11.52-19.2-32-32-53.76-32H417.28c-21.76 0-42.24 12.8-53.76 32l-79.36 133.12c-14.08 23.04-11.52 53.76 7.68 72.96l221.44 252.16c11.52 12.8 28.16 21.76 46.08 21.76s34.56-7.68 46.08-21.76l222.72-252.16c20.48-19.2 24.32-48.64 10.24-72.96zM704 482.56l-125.44 124.16c-10.24 8.96-25.6 8.96-37.12 0l-124.16-124.16c-10.24-10.24-10.24-26.88 0-35.84 10.24-10.24 26.88-10.24 35.84 0l106.24 106.24 106.24-106.24c8.96-10.24 24.32-11.52 33.28-2.56l2.56 2.56c11.52 10.24 11.52 25.6 2.56 35.84z" fill="#FFFFFF" p-id="1103"></path></svg>